<svg id="visual" viewBox="0 0 900 600" width="900" height="600" xmlns="http://www.w3.org/2000/svg" xmlns:xlink="http://www.w3.org/1999/xlink" version="1.1"><rect x="0" y="0" width="900" height="600" fill="#a1b79f"></rect><path d="M0 468L21.5 466.8C43 465.7 86 463.3 128.8 461.5C171.7 459.7 214.3 458.3 257.2 465C300 471.7 343 486.3 385.8 487.5C428.7 488.7 471.3 476.3 514.2 469.8C557 463.3 600 462.7 642.8 468.8C685.7 475 728.3 488 771.2 491.5C814 495 857 489 878.5 486L900 483L900 601L878.5 601C857 601 814 601 771.2 601C728.3 601 685.7 601 642.8 601C600 601 557 601 514.2 601C471.3 601 428.7 601 385.8 601C343 601 300 601 257.2 601C214.3 601 171.7 601 128.8 601C86 601 43 601 21.5 601L0 601Z" fill="#599f53"></path><path d="M0 488L21.5 493C43 498 86 508 128.8 509.3C171.7 510.7 214.3 503.3 257.2 503.5C300 503.7 343 511.3 385.8 512C428.7 512.7 471.3 506.3 514.2 501.2C557 496 600 492 642.8 489C685.7 486 728.3 484 771.2 485.2C814 486.3 857 490.7 878.5 492.8L900 495L900 601L878.5 601C857 601 814 601 771.2 601C728.3 601 685.7 601 642.8 601C600 601 557 601 514.2 601C471.3 601 428.7 601 385.8 601C343 601 300 601 257.2 601C214.3 601 171.7 601 128.8 601C86 601 43 601 21.5 601L0 601Z" fill="#4a8545"></path><path d="M0 519L21.5 520.2C43 521.3 86 523.7 128.8 523.7C171.7 523.7 214.3 521.3 257.2 522.5C300 523.7 343 528.3 385.8 527.2C428.7 526 471.3 519 514.2 516.5C557 514 600 516 642.8 516.5C685.7 517 728.3 516 771.2 516.3C814 516.7 857 518.3 878.5 519.2L900 520L900 601L878.5 601C857 601 814 601 771.2 601C728.3 601 685.7 601 642.8 601C600 601 557 601 514.2 601C471.3 601 428.7 601 385.8 601C343 601 300 601 257.2 601C214.3 601 171.7 601 128.8 601C86 601 43 601 21.5 601L0 601Z" fill="#3c6b37"></path><path d="M0 542L21.5 544C43 546 86 550 128.8 551.8C171.7 553.7 214.3 553.3 257.2 549.3C300 545.3 343 537.7 385.8 539.2C428.7 540.7 471.3 551.3 514.2 554.8C557 558.3 600 554.7 642.8 553.5C685.7 552.3 728.3 553.7 771.2 552.3C814 551 857 547 878.5 545L900 543L900 601L878.5 601C857 601 814 601 771.2 601C728.3 601 685.7 601 642.8 601C600 601 557 601 514.2 601C471.3 601 428.7 601 385.8 601C343 601 300 601 257.2 601C214.3 601 171.7 601 128.8 601C86 601 43 601 21.5 601L0 601Z" fill="#2e522a"></path><path d="M0 582L21.5 579.3C43 576.7 86 571.3 128.8 569.5C171.7 567.7 214.3 569.3 257.2 568.7C300 568 343 565 385.8 565.3C428.7 565.7 471.3 569.3 514.2 568C557 566.7 600 560.3 642.8 559.7C685.7 559 728.3 564 771.2 568.5C814 573 857 577 878.5 579L900 581L900 601L878.5 601C857 601 814 601 771.2 601C728.3 601 685.7 601 642.8 601C600 601 557 601 514.2 601C471.3 601 428.7 601 385.8 601C343 601 300 601 257.2 601C214.3 601 171.7 601 128.8 601C86 601 43 601 21.5 601L0 601Z" fill="#213b1d"></path></svg>