<svg id="visual" viewBox="0 0 900 600" width="900" height="600" xmlns="http://www.w3.org/2000/svg" xmlns:xlink="http://www.w3.org/1999/xlink" version="1.1"><g stroke-width="1" stroke-linejoin="bevel"><path d="M443.1 324L458.1 368L522.7 343Z" fill="#98c5cc" stroke="#98c5cc"></path><path d="M458.1 368L503.9 401L522.7 343Z" fill="#98c5cc" stroke="#98c5cc"></path><path d="M522.7 343L533.9 269L443.1 324Z" fill="#8dbbb8" stroke="#8dbbb8"></path><path d="M533.9 269L519.9 253L443.1 324Z" fill="#92c0c2" stroke="#92c0c2"></path><path d="M379.1 224L376.3 311L443.1 324Z" fill="#92c0c2" stroke="#92c0c2"></path><path d="M443.1 324L376.3 311L458.1 368Z" fill="#9fcad5" stroke="#9fcad5"></path><path d="M383.3 489L517.7 464L503.9 401Z" fill="#8dbbb8" stroke="#8dbbb8"></path><path d="M605.5 422L588.7 282L522.7 343Z" fill="#98c5cc" stroke="#98c5cc"></path><path d="M522.7 343L588.7 282L533.9 269Z" fill="#86afa3" stroke="#86afa3"></path><path d="M533.9 269L588.7 282L519.9 253Z" fill="#86afa3" stroke="#86afa3"></path><path d="M383.3 489L503.9 401L458.1 368Z" fill="#89b5ae" stroke="#89b5ae"></path><path d="M503.9 401L589.7 426L522.7 343Z" fill="#a7cfdf" stroke="#a7cfdf"></path><path d="M517.7 464L589.7 426L503.9 401Z" fill="#8dbbb8" stroke="#8dbbb8"></path><path d="M608.5 462L605.5 422L589.7 426Z" fill="#8dbbb8" stroke="#8dbbb8"></path><path d="M589.7 426L605.5 422L522.7 343Z" fill="#9fcad5" stroke="#9fcad5"></path><path d="M519.9 253L379.1 224L443.1 324Z" fill="#98c5cc" stroke="#98c5cc"></path><path d="M517.7 464L544.9 475L589.7 426Z" fill="#86afa3" stroke="#86afa3"></path><path d="M559.7 124L488.9 175L519.9 253Z" fill="#8dbbb8" stroke="#8dbbb8"></path><path d="M519.9 253L488.9 175L379.1 224Z" fill="#b0d4e7" stroke="#b0d4e7"></path><path d="M517.7 464L545.9 487L544.9 475Z" fill="#86afa3" stroke="#86afa3"></path><path d="M544.9 475L608.5 462L589.7 426Z" fill="#84a999" stroke="#84a999"></path><path d="M379.1 224L327.3 276L376.3 311Z" fill="#83a38f" stroke="#83a38f"></path><path d="M376.3 311L358.3 466L458.1 368Z" fill="#b0d4e7" stroke="#b0d4e7"></path><path d="M665.5 253L634.5 254L588.7 282Z" fill="#bad9ef" stroke="#bad9ef"></path><path d="M588.7 282L634.5 254L519.9 253Z" fill="#9fcad5" stroke="#9fcad5"></path><path d="M545.9 487L608.5 462L544.9 475Z" fill="#9fcad5" stroke="#9fcad5"></path><path d="M605.5 422L665.5 253L588.7 282Z" fill="#a7cfdf" stroke="#a7cfdf"></path><path d="M283.3 377L358.3 466L376.3 311Z" fill="#9fcad5" stroke="#9fcad5"></path><path d="M517.7 464L529.7 517L545.9 487Z" fill="#9fcad5" stroke="#9fcad5"></path><path d="M358.3 466L383.3 489L458.1 368Z" fill="#bad9ef" stroke="#bad9ef"></path><path d="M383.3 489L529.7 517L517.7 464Z" fill="#bad9ef" stroke="#bad9ef"></path><path d="M545.9 487L629.7 600L608.5 462Z" fill="#83a38f" stroke="#83a38f"></path><path d="M358.3 466L362.1 483L383.3 489Z" fill="#92c0c2" stroke="#92c0c2"></path><path d="M253.5 185L285.5 313L327.3 276Z" fill="#92c0c2" stroke="#92c0c2"></path><path d="M327.3 276L285.5 313L376.3 311Z" fill="#84a999" stroke="#84a999"></path><path d="M358.3 466L207.5 534L362.1 483Z" fill="#92c0c2" stroke="#92c0c2"></path><path d="M765.2 391L665.5 253L605.5 422Z" fill="#98c5cc" stroke="#98c5cc"></path><path d="M634.5 254L559.7 124L519.9 253Z" fill="#83a38f" stroke="#83a38f"></path><path d="M285.5 313L283.3 377L376.3 311Z" fill="#83a38f" stroke="#83a38f"></path><path d="M488.9 175L375.1 144L379.1 224Z" fill="#86afa3" stroke="#86afa3"></path><path d="M379.1 224L308.3 182L327.3 276Z" fill="#89b5ae" stroke="#89b5ae"></path><path d="M619.5 133L559.7 124L634.5 254Z" fill="#84a999" stroke="#84a999"></path><path d="M488.9 175L478.9 47L375.1 144Z" fill="#89b5ae" stroke="#89b5ae"></path><path d="M226.5 337L267.5 409L283.3 377Z" fill="#83a38f" stroke="#83a38f"></path><path d="M283.3 377L267.5 409L358.3 466Z" fill="#a7cfdf" stroke="#a7cfdf"></path><path d="M375.1 144L308.3 182L379.1 224Z" fill="#bad9ef" stroke="#bad9ef"></path><path d="M285.5 313L226.5 337L283.3 377Z" fill="#bad9ef" stroke="#bad9ef"></path><path d="M336.3 600L400.1 558L362.1 483Z" fill="#bad9ef" stroke="#bad9ef"></path><path d="M362.1 483L400.1 558L383.3 489Z" fill="#83a38f" stroke="#83a38f"></path><path d="M383.3 489L400.1 558L529.7 517Z" fill="#92c0c2" stroke="#92c0c2"></path><path d="M663.5 132L619.5 133L634.5 254Z" fill="#a7cfdf" stroke="#a7cfdf"></path><path d="M203.6 324L226.5 337L285.5 313Z" fill="#89b5ae" stroke="#89b5ae"></path><path d="M684.4 527L711.4 468L608.5 462Z" fill="#92c0c2" stroke="#92c0c2"></path><path d="M608.5 462L711.4 468L605.5 422Z" fill="#9fcad5" stroke="#9fcad5"></path><path d="M684.4 527L629.7 600L675.5 566Z" fill="#a7cfdf" stroke="#a7cfdf"></path><path d="M400.1 558L456.1 600L529.7 517Z" fill="#92c0c2" stroke="#92c0c2"></path><path d="M375.1 144L270.5 173L308.3 182Z" fill="#84a999" stroke="#84a999"></path><path d="M308.3 182L253.5 185L327.3 276Z" fill="#b0d4e7" stroke="#b0d4e7"></path><path d="M456.1 600L519.9 600L529.7 517Z" fill="#b0d4e7" stroke="#b0d4e7"></path><path d="M758.4 190L663.5 132L665.5 253Z" fill="#92c0c2" stroke="#92c0c2"></path><path d="M665.5 253L663.5 132L634.5 254Z" fill="#83a38f" stroke="#83a38f"></path><path d="M530.7 45L478.9 47L559.7 124Z" fill="#84a999" stroke="#84a999"></path><path d="M270.5 173L253.5 185L308.3 182Z" fill="#84a999" stroke="#84a999"></path><path d="M684.4 527L608.5 462L629.7 600Z" fill="#bad9ef" stroke="#bad9ef"></path><path d="M253.5 185L203.6 324L285.5 313Z" fill="#a7cfdf" stroke="#a7cfdf"></path><path d="M226.5 337L177.6 348L267.5 409Z" fill="#b0d4e7" stroke="#b0d4e7"></path><path d="M773.4 415L765.2 391L711.4 468Z" fill="#b0d4e7" stroke="#b0d4e7"></path><path d="M711.4 468L765.2 391L605.5 422Z" fill="#98c5cc" stroke="#98c5cc"></path><path d="M530.7 45L559.7 124L619.5 133Z" fill="#98c5cc" stroke="#98c5cc"></path><path d="M559.7 124L478.9 47L488.9 175Z" fill="#84a999" stroke="#84a999"></path><path d="M375.1 144L286.5 0L270.5 173Z" fill="#9fcad5" stroke="#9fcad5"></path><path d="M657.5 0L530.7 45L619.5 133Z" fill="#98c5cc" stroke="#98c5cc"></path><path d="M765.2 391L777.2 358L665.5 253Z" fill="#92c0c2" stroke="#92c0c2"></path><path d="M629.7 600L545.9 487L529.7 517Z" fill="#8dbbb8" stroke="#8dbbb8"></path><path d="M866.2 499L773.4 415L711.4 468Z" fill="#84a999" stroke="#84a999"></path><path d="M789.4 600L711.4 468L684.4 527Z" fill="#86afa3" stroke="#86afa3"></path><path d="M765.2 391L773.4 415L777.2 358Z" fill="#8dbbb8" stroke="#8dbbb8"></path><path d="M288.5 600L362.1 483L207.5 534Z" fill="#9fcad5" stroke="#9fcad5"></path><path d="M288.5 600L336.3 600L362.1 483Z" fill="#86afa3" stroke="#86afa3"></path><path d="M400.1 558L336.3 600L456.1 600Z" fill="#83a38f" stroke="#83a38f"></path><path d="M519.9 600L629.7 600L529.7 517Z" fill="#b0d4e7" stroke="#b0d4e7"></path><path d="M133.8 346L177.6 348L203.6 324Z" fill="#98c5cc" stroke="#98c5cc"></path><path d="M203.6 324L177.6 348L226.5 337Z" fill="#bad9ef" stroke="#bad9ef"></path><path d="M421.1 0L406.1 39L478.9 47Z" fill="#a7cfdf" stroke="#a7cfdf"></path><path d="M478.9 47L406.1 39L375.1 144Z" fill="#a7cfdf" stroke="#a7cfdf"></path><path d="M188.5 110L149.6 184L253.5 185Z" fill="#92c0c2" stroke="#92c0c2"></path><path d="M794.4 304L758.4 190L665.5 253Z" fill="#92c0c2" stroke="#92c0c2"></path><path d="M657.5 0L526.7 0L530.7 45Z" fill="#83a38f" stroke="#83a38f"></path><path d="M865.2 223L794.4 304L900 257Z" fill="#84a999" stroke="#84a999"></path><path d="M777.2 358L794.4 304L665.5 253Z" fill="#8dbbb8" stroke="#8dbbb8"></path><path d="M758.4 190L718.4 122L663.5 132Z" fill="#bad9ef" stroke="#bad9ef"></path><path d="M421.1 0L380.3 34L406.1 39Z" fill="#83a38f" stroke="#83a38f"></path><path d="M406.1 39L380.3 34L375.1 144Z" fill="#bad9ef" stroke="#bad9ef"></path><path d="M207.5 534L358.3 466L267.5 409Z" fill="#a7cfdf" stroke="#a7cfdf"></path><path d="M530.7 45L485.9 0L478.9 47Z" fill="#83a38f" stroke="#83a38f"></path><path d="M526.7 0L485.9 0L530.7 45Z" fill="#89b5ae" stroke="#89b5ae"></path><path d="M657.5 0L619.5 133L663.5 132Z" fill="#bad9ef" stroke="#bad9ef"></path><path d="M118.8 446L207.5 534L267.5 409Z" fill="#89b5ae" stroke="#89b5ae"></path><path d="M485.9 0L421.1 0L478.9 47Z" fill="#84a999" stroke="#84a999"></path><path d="M207.5 534L209.6 547L288.5 600Z" fill="#84a999" stroke="#84a999"></path><path d="M675.5 566L706.5 600L684.4 527Z" fill="#92c0c2" stroke="#92c0c2"></path><path d="M629.7 600L706.5 600L675.5 566Z" fill="#89b5ae" stroke="#89b5ae"></path><path d="M86.8 265L133.8 346L203.6 324Z" fill="#9fcad5" stroke="#9fcad5"></path><path d="M177.6 348L118.8 446L267.5 409Z" fill="#9fcad5" stroke="#9fcad5"></path><path d="M72.8 571L201.6 600L209.6 547Z" fill="#89b5ae" stroke="#89b5ae"></path><path d="M421.1 0L359.3 0L380.3 34Z" fill="#b0d4e7" stroke="#b0d4e7"></path><path d="M286.5 0L188.5 110L270.5 173Z" fill="#b0d4e7" stroke="#b0d4e7"></path><path d="M253.5 185L149.6 184L203.6 324Z" fill="#84a999" stroke="#84a999"></path><path d="M188.5 110L253.5 185L270.5 173Z" fill="#92c0c2" stroke="#92c0c2"></path><path d="M286.5 0L375.1 144L380.3 34Z" fill="#98c5cc" stroke="#98c5cc"></path><path d="M718.4 122L657.5 0L663.5 132Z" fill="#89b5ae" stroke="#89b5ae"></path><path d="M760.4 40L657.5 0L718.4 122Z" fill="#89b5ae" stroke="#89b5ae"></path><path d="M74.8 322L118.8 446L133.8 346Z" fill="#bad9ef" stroke="#bad9ef"></path><path d="M133.8 346L118.8 446L177.6 348Z" fill="#86afa3" stroke="#86afa3"></path><path d="M72.8 571L209.6 547L207.5 534Z" fill="#b0d4e7" stroke="#b0d4e7"></path><path d="M209.6 547L201.6 600L288.5 600Z" fill="#86afa3" stroke="#86afa3"></path><path d="M359.3 0L286.5 0L380.3 34Z" fill="#a7cfdf" stroke="#a7cfdf"></path><path d="M102.8 203L115.6 204L149.6 184Z" fill="#9fcad5" stroke="#9fcad5"></path><path d="M149.6 184L115.6 204L203.6 324Z" fill="#84a999" stroke="#84a999"></path><path d="M0 496L115.6 468L118.8 446Z" fill="#86afa3" stroke="#86afa3"></path><path d="M118.8 446L115.6 468L207.5 534Z" fill="#bad9ef" stroke="#bad9ef"></path><path d="M794.4 304L865.2 223L758.4 190Z" fill="#bad9ef" stroke="#bad9ef"></path><path d="M836.2 37L760.4 40L718.4 122Z" fill="#bad9ef" stroke="#bad9ef"></path><path d="M900 371L794.4 304L777.2 358Z" fill="#bad9ef" stroke="#bad9ef"></path><path d="M900 371L777.2 358L900 404Z" fill="#92c0c2" stroke="#92c0c2"></path><path d="M115.6 204L86.8 265L203.6 324Z" fill="#8dbbb8" stroke="#8dbbb8"></path><path d="M117.6 23L102.8 203L149.6 184Z" fill="#9fcad5" stroke="#9fcad5"></path><path d="M115.6 204L102.8 203L86.8 265Z" fill="#84a999" stroke="#84a999"></path><path d="M117.6 23L149.6 184L188.5 110Z" fill="#8dbbb8" stroke="#8dbbb8"></path><path d="M861.2 177L718.4 122L758.4 190Z" fill="#98c5cc" stroke="#98c5cc"></path><path d="M706.5 600L789.4 600L684.4 527Z" fill="#83a38f" stroke="#83a38f"></path><path d="M86.8 265L74.8 322L133.8 346Z" fill="#89b5ae" stroke="#89b5ae"></path><path d="M865.2 223L861.2 177L758.4 190Z" fill="#9fcad5" stroke="#9fcad5"></path><path d="M789.4 600L866.2 499L711.4 468Z" fill="#98c5cc" stroke="#98c5cc"></path><path d="M900 404L777.2 358L773.4 415Z" fill="#83a38f" stroke="#83a38f"></path><path d="M865.2 223L900 241L861.2 177Z" fill="#84a999" stroke="#84a999"></path><path d="M789.4 600L869.2 505L866.2 499Z" fill="#bad9ef" stroke="#bad9ef"></path><path d="M866.2 499L900 404L773.4 415Z" fill="#98c5cc" stroke="#98c5cc"></path><path d="M900 529L900 404L866.2 499Z" fill="#8dbbb8" stroke="#8dbbb8"></path><path d="M900 371L900 257L794.4 304Z" fill="#92c0c2" stroke="#92c0c2"></path><path d="M900 257L900 241L865.2 223Z" fill="#b0d4e7" stroke="#b0d4e7"></path><path d="M760.4 40L750.4 0L657.5 0Z" fill="#98c5cc" stroke="#98c5cc"></path><path d="M824.2 0L750.4 0L760.4 40Z" fill="#b0d4e7" stroke="#b0d4e7"></path><path d="M286.5 0L207.6 0L188.5 110Z" fill="#9fcad5" stroke="#9fcad5"></path><path d="M789.4 600L837.2 600L869.2 505Z" fill="#b0d4e7" stroke="#b0d4e7"></path><path d="M837.2 600L900 529L869.2 505Z" fill="#b0d4e7" stroke="#b0d4e7"></path><path d="M869.2 505L900 529L866.2 499Z" fill="#83a38f" stroke="#83a38f"></path><path d="M900 132L836.2 37L861.2 177Z" fill="#92c0c2" stroke="#92c0c2"></path><path d="M861.2 177L836.2 37L718.4 122Z" fill="#84a999" stroke="#84a999"></path><path d="M900 241L900 132L861.2 177Z" fill="#98c5cc" stroke="#98c5cc"></path><path d="M115.6 468L72.8 571L207.5 534Z" fill="#84a999" stroke="#84a999"></path><path d="M0 496L72.8 571L115.6 468Z" fill="#b0d4e7" stroke="#b0d4e7"></path><path d="M900 0L824.2 0L836.2 37Z" fill="#b0d4e7" stroke="#b0d4e7"></path><path d="M836.2 37L824.2 0L760.4 40Z" fill="#98c5cc" stroke="#98c5cc"></path><path d="M207.6 0L117.6 23L188.5 110Z" fill="#86afa3" stroke="#86afa3"></path><path d="M0 312L74.8 322L86.8 265Z" fill="#83a38f" stroke="#83a38f"></path><path d="M0 312L0 317L74.8 322Z" fill="#89b5ae" stroke="#89b5ae"></path><path d="M0 312L86.8 265L0 194Z" fill="#83a38f" stroke="#83a38f"></path><path d="M74.8 322L0 496L118.8 446Z" fill="#a7cfdf" stroke="#a7cfdf"></path><path d="M0 194L86.8 265L102.8 203Z" fill="#83a38f" stroke="#83a38f"></path><path d="M207.6 0L128.8 0L117.6 23Z" fill="#84a999" stroke="#84a999"></path><path d="M837.2 600L900 600L900 529Z" fill="#9fcad5" stroke="#9fcad5"></path><path d="M0 116L0 194L102.8 203Z" fill="#84a999" stroke="#84a999"></path><path d="M0 116L102.8 203L117.6 23Z" fill="#83a38f" stroke="#83a38f"></path><path d="M900 132L900 48L836.2 37Z" fill="#92c0c2" stroke="#92c0c2"></path><path d="M0 317L0 496L74.8 322Z" fill="#a7cfdf" stroke="#a7cfdf"></path><path d="M0 564L29.8 600L72.8 571Z" fill="#86afa3" stroke="#86afa3"></path><path d="M72.8 571L29.8 600L201.6 600Z" fill="#84a999" stroke="#84a999"></path><path d="M0 106L0 116L117.6 23Z" fill="#92c0c2" stroke="#92c0c2"></path><path d="M0 496L0 564L72.8 571Z" fill="#89b5ae" stroke="#89b5ae"></path><path d="M26.8 16L0 106L117.6 23Z" fill="#8dbbb8" stroke="#8dbbb8"></path><path d="M900 48L900 0L836.2 37Z" fill="#83a38f" stroke="#83a38f"></path><path d="M0 564L0 600L29.8 600Z" fill="#b0d4e7" stroke="#b0d4e7"></path><path d="M128.8 0L26.8 16L117.6 23Z" fill="#b0d4e7" stroke="#b0d4e7"></path><path d="M128.8 0L0 0L26.8 16Z" fill="#83a38f" stroke="#83a38f"></path><path d="M26.8 16L0 0L0 106Z" fill="#98c5cc" stroke="#98c5cc"></path></g></svg>